<?xml version="1.0" encoding="utf-8"?>
<!-- Generator: Adobe Illustrator 28.4.1, SVG Export Plug-In . SVG Version: 6.00 Build 0)  -->
<svg version="1.1" id="Layer_1" xmlns="http://www.w3.org/2000/svg" xmlns:xlink="http://www.w3.org/1999/xlink" x="0px" y="0px"
	 viewBox="0 0 457.66 457.66" style="enable-background:new 0 0 457.66 457.66;" xml:space="preserve">
<style type="text/css">
	.st0{fill:#010101;stroke:#010101;stroke-width:10.627;stroke-miterlimit:10;}
</style>
<g>
	<polygon class="st0" points="198.04,183.5 263.41,183.5 168.25,278.66 179.03,289.4 274.19,194.24 274.19,259.62 289.4,259.62 
		289.4,168.25 198.04,168.25 	"/>
	<g>
		<path d="M286.08,39.09l-14.51-3.78l3.77-14.47l14.51,3.78L286.08,39.09z"/>
		<path d="M352.43,40.09l4.58,3.08l-15.53,23.05l-4.58-3.08L352.43,40.09z"/>
		<path d="M360.2,69.9c-0.57,0.72-0.81,1.38-0.73,1.97c0.08,0.59,0.5,1.19,1.27,1.8l0.61,0.48c0.23,0.18-0.28,1.04-1.5,2.6
			c-1.14,1.44-1.82,2.08-2.05,1.9l-0.54-0.43c-0.47-0.37-0.86-0.78-1.17-1.23c-0.31-0.44-0.49-0.87-0.53-1.27l0.03-0.03
			c-1.44,1.64-3.07,2.84-4.87,3.6c-1.8,0.75-3.67,0.97-5.6,0.66c-1.93-0.31-3.81-1.19-5.63-2.64l-2.84-2.24l3.18-4.79l3.15,2.48
			c1.56,1.23,3.1,1.76,4.62,1.59c1.52-0.17,2.88-1.01,4.08-2.52l8.22-10.42l4.33,3.42L360.2,69.9z"/>
		<path d="M366.85,79.25c0.21,0.19-0.34,1.03-1.66,2.5c-0.8,0.9-1.34,1.44-1.62,1.62c-0.28,0.18-0.46,0.23-0.54,0.15l-4.82-4.31
			c-0.21-0.19,0.29-0.97,1.52-2.34c0.84-0.94,1.42-1.52,1.72-1.73c0.3-0.21,0.5-0.28,0.58-0.2L366.85,79.25z"/>
		<path d="M371.52,83.69c0.21,0.2-0.37,1.02-1.74,2.45c-0.83,0.87-1.39,1.4-1.67,1.56c-0.28,0.17-0.46,0.21-0.55,0.14l-4.68-4.46
			c-0.21-0.2,0.32-0.96,1.59-2.29c0.87-0.92,1.46-1.47,1.77-1.67c0.31-0.2,0.51-0.26,0.59-0.18L371.52,83.69z"/>
		<path d="M376.02,88.26c0.2,0.2-0.4,1-1.81,2.39c-0.86,0.85-1.43,1.35-1.72,1.51c-0.29,0.16-0.47,0.2-0.55,0.12l-4.54-4.6
			c-0.2-0.2,0.35-0.95,1.66-2.24c0.9-0.89,1.51-1.43,1.82-1.62c0.32-0.19,0.51-0.24,0.6-0.16L376.02,88.26z"/>
		<path d="M380.4,92.99c0.19,0.21-0.43,0.99-1.89,2.34c-0.89,0.82-1.47,1.31-1.76,1.46c-0.29,0.15-0.48,0.18-0.55,0.1l-4.39-4.74
			c-0.19-0.21,0.38-0.94,1.73-2.19c0.93-0.86,1.55-1.38,1.87-1.56c0.32-0.18,0.52-0.23,0.6-0.14L380.4,92.99z"/>
		<path d="M373.06,107.51l3.85-3.05l3.69,4.66l-3.85,3.05L373.06,107.51z M382.58,95.17c1.34,1.69,2.57,3.01,3.68,3.95
			c1.12,0.95,2.48,1.74,4.08,2.37l4.31,1.76c0.65-0.89,0.97-1.68,0.95-2.37s-0.38-1.49-1.08-2.36l-6.13-7.73l4.83-3l6.34,8.01
			c1.12,1.42,1.8,2.77,2.03,4.05c0.23,1.28,0,2.68-0.7,4.18c-0.7,1.5-1.89,3.31-3.59,5.43l-9.34-3.32
			c-2.16-0.78-3.97-1.73-5.42-2.85c-1.46-1.12-2.99-2.69-4.59-4.72l-1.85-2.33c-0.18-0.22,0.45-0.91,1.89-2.05
			c0.97-0.77,1.63-1.23,1.97-1.4c0.35-0.16,0.56-0.2,0.63-0.11L382.58,95.17z"/>
		<path d="M416.88,104.18l3,4.63l-23.34,15.09l-3-4.63L416.88,104.18z"/>
		<path d="M414.09,144.28c0.06,0.13-0.06,0.31-0.36,0.54c-0.3,0.23-1.01,0.62-2.12,1.17c-1.06,0.52-1.75,0.82-2.08,0.91
			c-0.33,0.08-0.52,0.06-0.59-0.07l-0.69-1.39c-1.07-2.16-1.26-4.11-0.56-5.85c0.7-1.74,2.2-3.18,4.52-4.32l17.7-8.74l2.44,4.95
			l-17.35,8.57c-0.82,0.41-1.36,0.87-1.6,1.39c-0.24,0.52-0.19,1.13,0.15,1.82L414.09,144.28z"/>
		<path d="M416.6,150.17c0.12,0.26-0.73,0.79-2.55,1.59c-1.1,0.48-1.82,0.75-2.14,0.8s-0.51,0.02-0.56-0.09l-2.59-5.92
			c-0.12-0.26,0.67-0.76,2.35-1.5c1.16-0.51,1.92-0.79,2.28-0.86c0.36-0.06,0.57-0.04,0.61,0.06L416.6,150.17z"/>
		<path d="M422.81,160.71c-2.26,0.85-4.27,0.86-6.05,0.02c-1.77-0.84-3.09-2.4-3.95-4.68l-1.49-3.95c-0.1-0.27,0.71-0.73,2.43-1.38
			c1.16-0.44,1.92-0.68,2.3-0.73c0.38-0.05,0.59-0.02,0.63,0.08l1.49,3.95c0.26,0.7,0.65,1.18,1.17,1.45
			c0.51,0.27,1.09,0.28,1.74,0.04l6.45-2.43l1.93,5.12L422.81,160.71z M429.79,146.24l4.6-1.73l2.22,5.89l-4.6,1.73L429.79,146.24z
			 M431.86,151.72l4.6-1.73l2.22,5.89l-4.6,1.73L431.86,151.72z"/>
		<path d="M428.55,189.54l3.33,17.7c0.05,0.28-0.89,0.61-2.84,0.97c-1.81,0.34-2.74,0.37-2.79,0.09l-0.7-3.73
			c-0.12,0.14-0.29,0.25-0.51,0.34c-0.22,0.08-0.47,0.15-0.75,0.21c-1.72,0.32-3.35,0.12-4.87-0.6c-1.52-0.72-2.82-1.9-3.89-3.54
			c-1.07-1.64-1.82-3.59-2.24-5.85l-0.6-3.18c-0.69-3.67-0.17-6.7,1.56-9.09c1.73-2.39,4.48-3.94,8.27-4.65l8.47-1.59l1.02,5.42
			l-8.34,1.57c-2.17,0.41-3.71,1.2-4.6,2.38c-0.89,1.18-1.14,2.81-0.74,4.9l0.61,3.26c0.4,2.15,0.97,3.66,1.71,4.55
			c0.74,0.88,1.61,1.23,2.63,1.04c0.56-0.11,0.94-0.33,1.12-0.67c0.18-0.34,0.21-0.88,0.07-1.61l-1.39-7.37L428.55,189.54z"/>
		<path d="M431.8,213.66c0.03,0.29-0.95,0.52-2.92,0.69c-1.2,0.11-1.96,0.13-2.29,0.08c-0.32-0.06-0.49-0.14-0.5-0.26l-0.58-6.44
			c-0.03-0.29,0.88-0.51,2.71-0.68c1.26-0.11,2.07-0.14,2.44-0.09c0.37,0.05,0.55,0.14,0.56,0.25L431.8,213.66z"/>
		<path d="M432.16,216.71c0.03,2.15,0.21,3.95,0.52,5.38c0.31,1.43,0.91,2.89,1.79,4.37l2.35,4.01c1.06-0.3,1.79-0.74,2.2-1.31
			c0.41-0.57,0.6-1.41,0.58-2.53l-0.16-9.87l5.66,0.56l0.17,10.21c0.03,1.81-0.26,3.29-0.85,4.45c-0.6,1.16-1.63,2.12-3.1,2.89
			c-1.47,0.77-3.52,1.48-6.15,2.13l-5.39-8.32c-1.24-1.93-2.09-3.79-2.57-5.56c-0.47-1.77-0.73-3.95-0.77-6.54l-0.05-2.97
			c0-0.29,0.91-0.45,2.75-0.48c1.23-0.02,2.04,0.01,2.42,0.09c0.37,0.08,0.56,0.18,0.56,0.29L432.16,216.71z"/>
		<path d="M453.86,244.79l-0.45,5.5l-27.7-2.28l0.45-5.5L453.86,244.79z"/>
		<path d="M431.65,266.13c-0.91-0.14-1.6-0.04-2.08,0.32c-0.48,0.36-0.8,1.02-0.95,1.99l-0.12,0.77c-0.04,0.28-1.05,0.27-3-0.04
			c-1.82-0.29-2.7-0.57-2.66-0.86l0.11-0.68c0.09-0.6,0.26-1.14,0.5-1.62c0.24-0.49,0.52-0.85,0.85-1.09l0.04,0.01
			c-2.14-0.46-3.98-1.29-5.52-2.49c-1.54-1.2-2.64-2.73-3.31-4.56c-0.67-1.84-0.82-3.9-0.46-6.2l0.57-3.58l5.74,0.43l-0.63,3.96
			c-0.31,1.96-0.02,3.56,0.87,4.81c0.89,1.25,2.29,2.02,4.19,2.32l13.11,2.08l-0.87,5.45L431.65,266.13z"/>
		<path d="M426.74,276.51c-0.06,0.28-1.06,0.21-3-0.23c-1.18-0.26-1.91-0.47-2.2-0.62c-0.29-0.15-0.42-0.29-0.4-0.4l1.41-6.31
			c0.06-0.28,0.99-0.22,2.79,0.18c1.23,0.28,2.02,0.49,2.35,0.66c0.33,0.16,0.49,0.3,0.46,0.41L426.74,276.51z"/>
		<path d="M425.14,282.74c-0.07,0.28-1.07,0.17-2.99-0.32c-1.17-0.3-1.9-0.53-2.18-0.69c-0.29-0.16-0.41-0.3-0.38-0.41l1.61-6.26
			c0.07-0.28,1-0.19,2.78,0.27c1.22,0.31,2,0.56,2.33,0.73c0.33,0.17,0.48,0.31,0.45,0.43L425.14,282.74z"/>
		<path d="M423.34,288.92c-0.08,0.28-1.07,0.14-2.98-0.42c-1.16-0.34-1.88-0.59-2.16-0.76c-0.28-0.17-0.4-0.31-0.37-0.42l1.81-6.21
			c0.08-0.28,1-0.16,2.77,0.36c1.21,0.35,1.98,0.62,2.3,0.8c0.32,0.18,0.46,0.33,0.43,0.44L423.34,288.92z"/>
		<path d="M443.2,300.03l-1.99,5.15l-13.02-5.03c1.07,1.77,1.69,3.43,1.87,4.97c0.17,1.54,0,2.99-0.52,4.33
			c-0.59,1.53-1.48,2.75-2.66,3.66c-1.18,0.91-2.54,1.46-4.07,1.64c-1.53,0.18-3.14-0.06-4.83-0.71c-1.74-0.67-3.12-1.62-4.14-2.85
			c-1.02-1.23-1.63-2.65-1.84-4.27s0.04-3.33,0.73-5.12l5.75-14.87c0.1-0.27,1.01-0.07,2.73,0.59c1.15,0.45,1.89,0.78,2.2,0.99
			c0.32,0.21,0.46,0.38,0.41,0.48l-1.2,3.09L443.2,300.03z M418.02,303.84c-0.47,1.21-0.52,2.25-0.17,3.12
			c0.35,0.88,1.05,1.52,2.1,1.92c0.7,0.27,1.35,0.37,1.96,0.3c0.61-0.07,1.15-0.3,1.6-0.67c0.45-0.38,0.8-0.86,1.02-1.45
			c0.44-1.13,0.34-2.49-0.29-4.09c-0.63-1.6-1.81-3.63-3.54-6.08L418.02,303.84z"/>
		<path d="M398.03,334.45c-2.03-1.2-3.58-2.67-4.66-4.4c-1.08-1.74-1.59-3.61-1.53-5.63c0.06-2.02,0.68-4.04,1.88-6.07l0.72-1.22
			l5.15,2.54l-0.9,1.52c-1.01,1.71-1.33,3.3-0.95,4.79c0.37,1.49,1.39,2.72,3.05,3.7l11.43,6.75l-2.8,4.75L398.03,334.45z
			 M416.34,338.35l4.23,2.5l-3.02,5.12l-4.23-2.5L416.34,338.35z"/>
		<path d="M415.78,355.12l-3.15,4.53l-22.83-15.86l3.15-4.53L415.78,355.12z"/>
		<path d="M355.01,381.59l11.19-9.99l9.96,11.16l-11.19,9.99L355.01,381.59z"/>
		<path d="M296.35,415.41c1.07-0.49,2.07-0.75,2.98-0.78c0.91-0.04,1.7,0.18,2.35,0.64c0.2-0.88,0.7-1.68,1.49-2.4
			c0.79-0.72,1.83-1.37,3.11-1.95c2.51-1.14,4.69-1.4,6.52-0.8c1.83,0.6,3.24,1.99,4.23,4.17l0.89,1.96
			c0.26,0.58,0.44,1.13,0.54,1.67c0.1,0.54,0.1,1.02,0.01,1.44l1.3-0.59c1.1-0.5,1.79-1.14,2.06-1.93s0.17-1.72-0.32-2.79l-8-17.67
			l5.03-2.27l8,17.67c0.76,1.67,1.08,3.29,0.97,4.86c-0.11,1.56-0.66,2.97-1.64,4.22c-0.98,1.25-2.33,2.26-4.06,3.04l-8.44,3.82
			c-2.51,1.14-4.66,1.38-6.44,0.72c-1.78-0.66-3.2-2.16-4.25-4.48l-0.92-2.04c-0.31-0.68-0.72-1.14-1.24-1.38
			c-0.52-0.24-1.1-0.21-1.76,0.09l-1.22,0.55c-0.26,0.12-0.8-0.73-1.62-2.53c-0.76-1.68-1.01-2.57-0.74-2.69L296.35,415.41z
			 M308.38,416.16c-0.86,0.39-1.45,0.88-1.75,1.46c-0.31,0.58-0.26,1.3,0.13,2.17l0.69,1.53c0.37,0.81,0.87,1.34,1.5,1.59
			c0.63,0.25,1.37,0.18,2.21-0.19l0.71-0.32c0.81-0.37,1.31-0.88,1.49-1.52c0.18-0.65,0.1-1.35-0.25-2.11l-0.6-1.33
			c-0.45-1-0.98-1.57-1.59-1.74C310.29,415.52,309.45,415.68,308.38,416.16z"/>
		<path d="M291.29,422.59c-0.27,0.09-0.73-0.8-1.36-2.68c-0.39-1.14-0.59-1.88-0.61-2.2c-0.02-0.33,0.02-0.51,0.13-0.55l6.12-2.08
			c0.27-0.09,0.7,0.73,1.3,2.47c0.41,1.2,0.63,1.98,0.66,2.35c0.03,0.37,0,0.57-0.11,0.61L291.29,422.59z"/>
		<path d="M286.58,424.05c-0.69,0.19-1.2,0.53-1.53,1.03c-0.33,0.49-0.4,1.06-0.22,1.69l1.85,6.69l-5.32,1.47l-1.79-6.48
			c-0.21-0.75-0.55-1.26-1.03-1.55c-0.48-0.28-1.11-0.32-1.88-0.1l-1.58,0.44c-0.28,0.08-0.67-0.81-1.19-2.67
			c-0.51-1.83-0.62-2.78-0.34-2.86l1.79-0.49c1.16-0.32,2.19-0.44,3.08-0.34c0.89,0.1,1.64,0.43,2.25,1.01
			c0.31-0.83,0.82-1.52,1.55-2.06c0.73-0.54,1.67-0.98,2.84-1.3l4.82-1.33c0.28-0.08,0.66,0.77,1.15,2.54
			c0.33,1.19,0.5,1.98,0.52,2.36c0.02,0.38-0.03,0.59-0.14,0.62L286.58,424.05z M284.7,408.88l1.31,4.73l-6.06,1.68l-1.31-4.73
			L284.7,408.88z M290.35,407.31l1.31,4.73l-6.06,1.68l-1.31-4.73L290.35,407.31z"/>
		<path d="M268.79,428.44c-0.28,0.06-0.63-0.88-1.05-2.82c-0.25-1.18-0.37-1.93-0.35-2.26s0.08-0.5,0.19-0.53l6.32-1.36
			c0.28-0.06,0.62,0.81,1,2.6c0.27,1.24,0.4,2.04,0.39,2.41c-0.01,0.37-0.07,0.57-0.18,0.59L268.79,428.44z"/>
		<path d="M262.47,429.59c-0.28,0.05-0.6-0.9-0.96-2.85c-0.22-1.19-0.31-1.94-0.28-2.27c0.03-0.33,0.1-0.5,0.21-0.52l6.36-1.16
			c0.28-0.05,0.59,0.83,0.92,2.64c0.23,1.24,0.33,2.05,0.31,2.42c-0.02,0.37-0.09,0.56-0.2,0.58L262.47,429.59z"/>
		<path d="M257.58,430.35c-0.71,0.09-1.27,0.35-1.66,0.79c-0.39,0.44-0.55,0.99-0.47,1.64l0.85,6.89l-5.47,0.68l-0.83-6.67
			c-0.1-0.77-0.36-1.33-0.79-1.68c-0.43-0.35-1.05-0.48-1.85-0.38l-1.62,0.2c-0.28,0.04-0.55-0.9-0.78-2.81
			c-0.23-1.88-0.21-2.84,0.08-2.88l1.84-0.23c1.2-0.15,2.23-0.11,3.1,0.11c0.87,0.22,1.56,0.67,2.08,1.33
			c0.42-0.78,1.04-1.38,1.84-1.81c0.8-0.43,1.8-0.72,3-0.87l4.96-0.62c0.28-0.04,0.54,0.86,0.77,2.68c0.15,1.23,0.21,2.03,0.17,2.41
			c-0.04,0.38-0.12,0.58-0.23,0.59L257.58,430.35z M257.51,444.08l0.6,4.88l-5.9,0.73l-0.61-4.88L257.51,444.08z"/>
		<path d="M234.46,432.26c-0.89,0.02-1.58,0.18-2.06,0.48c-0.48,0.3-0.71,0.71-0.7,1.23c0.01,0.46,0.14,0.87,0.38,1.24
			c0.24,0.37,0.61,0.8,1.11,1.31l9.58,8.89l0.11,4.48l-16.12,6.71l-1.73-5.26l11.01-4.51l-6.89-6.51c-1.06-1.01-1.83-2.04-2.32-3.11
			c-0.49-1.07-0.75-2.22-0.78-3.45c-0.05-2.07,0.63-3.77,2.05-5.12c1.42-1.34,3.43-2.05,6.05-2.12l11.59-0.3
			c0.29-0.01,0.45,0.91,0.5,2.75c0.03,1.23,0.01,2.04-0.07,2.42c-0.08,0.38-0.17,0.56-0.29,0.57L234.46,432.26z"/>
		<path d="M208.7,431.36l-17.92-1.89c-0.29-0.03-0.32-1.03-0.12-3c0.19-1.83,0.43-2.73,0.72-2.7l3.77,0.4
			c-0.1-0.15-0.16-0.35-0.18-0.58c-0.02-0.23-0.01-0.49,0.02-0.78c0.18-1.74,0.84-3.24,1.97-4.49c1.13-1.25,2.63-2.16,4.51-2.71
			c1.88-0.55,3.96-0.71,6.25-0.47l3.21,0.34c3.71,0.39,6.47,1.76,8.26,4.1c1.79,2.34,2.48,5.43,2.08,9.25l-0.9,8.57l-5.49-0.58
			l0.89-8.44c0.23-2.2-0.09-3.89-0.96-5.08c-0.87-1.19-2.36-1.9-4.48-2.12l-3.3-0.35c-2.17-0.23-3.79-0.12-4.85,0.33
			c-1.06,0.45-1.64,1.19-1.75,2.22c-0.06,0.57,0.05,0.99,0.32,1.27s0.78,0.45,1.53,0.53l7.46,0.79L208.7,431.36z"/>
		<path d="M184.65,427.55c-0.28-0.06-0.22-1.06,0.17-3c0.24-1.18,0.44-1.92,0.58-2.21c0.15-0.29,0.28-0.43,0.39-0.4l6.33,1.3
			c0.28,0.06,0.24,0.99-0.13,2.79c-0.25,1.24-0.46,2.02-0.61,2.36c-0.16,0.33-0.29,0.49-0.4,0.47L184.65,427.55z"/>
		<path d="M183.59,427.57c-0.77-0.22-1.36-0.22-1.77-0.01c-0.4,0.21-0.7,0.67-0.9,1.36l-0.33,1.16c-0.76,2.68-2.13,4.59-4.1,5.71
			c-1.98,1.13-4.28,1.32-6.9,0.58c-2.63-0.74-4.42-2.07-5.39-3.99c-0.97-1.92-1.05-4.27-0.27-7.06c0.77-2.71,2.09-4.61,3.99-5.7
			c1.89-1.09,4.15-1.27,6.78-0.52c1.38,0.39,2.48,0.9,3.29,1.51c0.81,0.62,1.37,1.3,1.66,2.04c0.69-0.52,1.46-0.84,2.33-0.95
			c0.87-0.11,1.92,0.01,3.17,0.36l1.08,0.3c0.28,0.08,0.16,1-0.34,2.77c-0.34,1.19-0.6,1.95-0.78,2.29
			c-0.18,0.34-0.33,0.49-0.44,0.46L183.59,427.57z M169.16,426.81c-0.33,1.16-0.32,2.1,0.03,2.83c0.35,0.73,1.03,1.23,2.06,1.52
			c1.08,0.3,1.96,0.24,2.63-0.2c0.68-0.44,1.18-1.23,1.51-2.4c0.28-1,0.24-1.84-0.14-2.52c-0.37-0.69-1.08-1.18-2.14-1.48
			c-1.05-0.3-1.9-0.26-2.54,0.11C169.92,425.05,169.46,425.76,169.16,426.81z"/>
		<path d="M141.06,412.49l-16.19-7.89c-0.26-0.13,0.05-1.08,0.92-2.86c0.81-1.65,1.34-2.42,1.6-2.29l3.41,1.66
			c-0.04-0.18-0.03-0.38,0.03-0.61c0.06-0.23,0.16-0.47,0.28-0.73c0.77-1.57,1.9-2.76,3.39-3.55c1.49-0.79,3.21-1.13,5.17-1.01
			c1.95,0.12,3.96,0.69,6.03,1.69l2.91,1.42c3.36,1.64,5.48,3.86,6.36,6.67c0.88,2.81,0.48,5.95-1.21,9.41l-3.78,7.75l-4.96-2.42
			l3.72-7.63c0.97-1.99,1.25-3.69,0.84-5.11c-0.41-1.42-1.57-2.59-3.49-3.52l-2.98-1.45c-1.96-0.96-3.52-1.4-4.67-1.34
			c-1.15,0.06-1.95,0.56-2.4,1.49c-0.25,0.52-0.3,0.95-0.13,1.3c0.16,0.35,0.58,0.69,1.25,1.02l6.74,3.29L141.06,412.49z"/>
		<path d="M119.79,400.72c-0.24-0.15,0.15-1.07,1.19-2.76c0.63-1.03,1.07-1.65,1.31-1.88c0.24-0.22,0.41-0.31,0.5-0.25l5.51,3.38
			c0.24,0.15-0.11,1.01-1.08,2.58c-0.66,1.08-1.12,1.75-1.38,2.01c-0.26,0.26-0.44,0.36-0.54,0.3L119.79,400.72z"/>
		<path d="M106.42,408.19l-2.8,4.03l-4.88-3.4l2.8-4.03L106.42,408.19z M115.65,398.02c-0.59-0.41-1.18-0.58-1.77-0.52
			c-0.59,0.06-1.07,0.37-1.45,0.91l-3.96,5.7l-4.53-3.15l3.84-5.52c0.44-0.64,0.62-1.23,0.53-1.78c-0.09-0.55-0.46-1.06-1.12-1.52
			l-1.34-0.93c-0.24-0.16,0.2-1.04,1.29-2.62c1.08-1.56,1.74-2.25,1.98-2.09l1.52,1.06c0.99,0.69,1.73,1.41,2.23,2.15
			c0.5,0.75,0.72,1.54,0.66,2.37c0.83-0.29,1.69-0.34,2.58-0.12c0.88,0.21,1.82,0.66,2.81,1.35l4.1,2.85c0.24,0.16-0.17,1-1.22,2.51
			c-0.7,1.01-1.2,1.65-1.48,1.91c-0.28,0.26-0.47,0.35-0.57,0.29L115.65,398.02z"/>
		<path d="M100.91,387.15c-0.23-0.18,0.27-1.05,1.49-2.61c0.74-0.95,1.25-1.52,1.51-1.72c0.26-0.2,0.44-0.26,0.53-0.19l5.09,3.99
			c0.23,0.18-0.23,0.99-1.36,2.44c-0.78,1-1.31,1.61-1.6,1.84c-0.29,0.23-0.48,0.31-0.57,0.24L100.91,387.15z"/>
		<path d="M92.98,380.36c-0.51-0.46-1.06-0.69-1.64-0.69c-0.58,0-1.1,0.26-1.56,0.77l-4.61,5.13l-4.1-3.69l4.75-5.29
			c1.61-1.8,3.4-2.73,5.37-2.79c1.97-0.07,3.85,0.71,5.65,2.32l7.79,7c0.21,0.19-0.29,0.97-1.52,2.34
			c-0.82,0.92-1.39,1.49-1.71,1.71c-0.31,0.22-0.51,0.29-0.6,0.22L92.98,380.36z M106.23,371.92l-3.28,3.66l-4.68-4.2l3.28-3.66
			L106.23,371.92z M110.59,375.84l-3.28,3.66l-4.68-4.2l3.28-3.66L110.59,375.84z"/>
		<path d="M92.21,365.63c-1.35-1.45-2.79-2.21-4.33-2.27c-1.53-0.06-3,0.56-4.41,1.87l-9.71,9.05l-3.76-4.04l4.73-4.41
			c0.67-0.63,1.01-1.24,1.03-1.84c0.01-0.6-0.32-1.26-0.98-1.97l-0.53-0.57c-0.2-0.21,0.43-0.99,1.88-2.34
			c1.35-1.25,2.12-1.77,2.31-1.56l0.47,0.5c0.41,0.44,0.74,0.9,0.97,1.39c0.24,0.49,0.35,0.93,0.33,1.34l-0.03,0.03
			c1.68-1.4,3.46-2.34,5.36-2.81c1.9-0.47,3.78-0.41,5.63,0.2c1.86,0.6,3.58,1.76,5.17,3.46l0.97,1.04l-3.9,4.22L92.21,365.63z"/>
		<path d="M70.27,356.46c-0.18-0.22,0.49-0.97,2.01-2.23c0.93-0.77,1.54-1.23,1.84-1.36c0.3-0.14,0.48-0.16,0.56-0.07l4.14,4.97
			c0.18,0.22-0.43,0.92-1.84,2.1c-0.97,0.81-1.62,1.29-1.95,1.46c-0.33,0.16-0.53,0.2-0.61,0.11L70.27,356.46z"/>
		<path d="M66.32,351.38c-0.18-0.23,0.52-0.95,2.08-2.17c0.95-0.74,1.58-1.18,1.88-1.3c0.3-0.13,0.49-0.14,0.56-0.05l3.98,5.1
			c0.18,0.23-0.46,0.91-1.91,2.04c-1,0.78-1.66,1.24-2,1.4c-0.34,0.15-0.54,0.18-0.61,0.09L66.32,351.38z"/>
		<path d="M62.53,346.2c-0.17-0.23,0.55-0.93,2.15-2.1c0.97-0.71,1.61-1.13,1.92-1.24c0.31-0.12,0.49-0.13,0.56-0.04l3.81,5.22
			c0.17,0.23-0.49,0.89-1.97,1.98c-1.02,0.75-1.7,1.19-2.04,1.33c-0.34,0.14-0.55,0.17-0.61,0.07L62.53,346.2z"/>
		<path d="M58.9,340.9c-0.16-0.24,0.57-0.92,2.21-2.03c1-0.68,1.65-1.08,1.96-1.18c0.31-0.11,0.5-0.11,0.56-0.02l3.65,5.34
			c0.16,0.24-0.52,0.87-2.03,1.91c-1.04,0.71-1.74,1.14-2.08,1.27c-0.35,0.13-0.55,0.15-0.62,0.06L58.9,340.9z"/>
		<path d="M55.44,335.47c-0.15-0.24,0.6-0.9,2.27-1.96c1.02-0.65,1.68-1.02,1.99-1.12c0.31-0.1,0.5-0.1,0.56,0l3.48,5.45
			c0.15,0.24-0.54,0.86-2.09,1.85c-1.07,0.68-1.77,1.08-2.12,1.2c-0.35,0.12-0.55,0.13-0.62,0.04L55.44,335.47z"/>
		<path d="M35.34,336.55l-4.32,2.33l-2.82-5.23l4.32-2.33L35.34,336.55z M52.88,331.39c-0.11-0.2-0.21-0.4-0.32-0.59
			c-0.1-0.19-0.21-0.37-0.33-0.53c-0.03,0.8-0.15,1.52-0.38,2.16c-0.22,0.64-0.57,1.21-1.05,1.69c-0.47,0.48-1.06,0.92-1.77,1.3
			c-1.44,0.78-2.92,1.16-4.43,1.14c-1.51-0.02-2.91-0.42-4.18-1.22c-1.28-0.8-2.32-1.94-3.12-3.43c-1.32-2.45-1.61-4.76-0.85-6.93
			s2.45-3.96,5.08-5.38l1.29-0.7c2.53-1.36,4.9-1.52,7.12-0.46c2.22,1.06,4.23,3.27,6.05,6.63l4.28,7.93
			c0.14,0.25-0.6,0.82-2.22,1.69c-1.09,0.59-1.82,0.93-2.19,1.03c-0.37,0.1-0.58,0.1-0.64,0L52.88,331.39z M48.06,323.37
			c-0.49-0.13-1-0.14-1.53-0.03c-0.53,0.11-1.1,0.32-1.71,0.65l-0.53,0.29c-1.24,0.67-2.04,1.43-2.42,2.28
			c-0.37,0.85-0.28,1.79,0.26,2.8c0.27,0.51,0.65,0.91,1.14,1.2c0.49,0.29,1.01,0.45,1.58,0.47c0.57,0.02,1.11-0.11,1.65-0.4
			c0.61-0.33,1.06-0.77,1.37-1.33c0.3-0.56,0.47-1.31,0.49-2.27S48.28,324.85,48.06,323.37z"/>
		<path d="M21.89,322.82c0.23,0.53,0.51,0.9,0.84,1.12c0.33,0.22,0.73,0.32,1.19,0.3l2.96-0.11l-0.02,3.96l-4.04,0.21
			c-0.93,0.03-1.72-0.07-2.38-0.28c-0.66-0.21-1.22-0.6-1.68-1.15c-0.46-0.55-0.88-1.28-1.27-2.17l-4.35-10l4.39-1.91L21.89,322.82z
			 M24.14,314.84l22.17-9.65l2.2,5.06l-22.17,9.65L24.14,314.84z"/>
		<path d="M24.72,303.04l-4.62,1.66l-2.01-5.6l4.62-1.66L24.72,303.04z M39.42,291.44c2.22-0.8,4.34-1.06,6.36-0.78
			c2.02,0.28,3.79,1.09,5.31,2.42c1.52,1.33,2.67,3.11,3.47,5.32l1.22,3.41l-5.23,2.38l-1.36-3.77c-0.67-1.87-1.7-3.13-3.08-3.79
			c-1.38-0.66-2.98-0.67-4.79-0.02l-12.49,4.49l-1.87-5.19L39.42,291.44z"/>
		<path d="M31.49,279.11c-0.04-0.14,0.11-0.29,0.45-0.46c0.34-0.17,1.1-0.43,2.29-0.77c1.13-0.32,1.87-0.5,2.21-0.52
			c0.34-0.02,0.53,0.04,0.57,0.17l0.43,1.49c0.66,2.32,0.5,4.27-0.5,5.86c-1,1.59-2.74,2.73-5.22,3.45l-18.98,5.43l-1.52-5.3
			l18.6-5.33c0.88-0.25,1.49-0.61,1.82-1.08c0.33-0.47,0.39-1.07,0.17-1.82L31.49,279.11z"/>
		<path d="M30.07,272.87c-0.07-0.28,0.86-0.65,2.79-1.11c1.17-0.28,1.92-0.41,2.25-0.4c0.33,0.01,0.5,0.07,0.53,0.18l1.49,6.29
			c0.07,0.28-0.79,0.63-2.58,1.06c-1.23,0.29-2.03,0.44-2.4,0.44c-0.37,0-0.57-0.06-0.59-0.17L30.07,272.87z"/>
		<path d="M25.85,261.39c2.37-0.43,4.36-0.08,5.95,1.06c1.6,1.14,2.61,2.91,3.05,5.31l0.76,4.15c0.05,0.28-0.83,0.59-2.64,0.92
			c-1.22,0.22-2.01,0.32-2.4,0.31c-0.38-0.02-0.58-0.08-0.61-0.2l-0.76-4.15c-0.13-0.73-0.43-1.28-0.89-1.63
			c-0.46-0.35-1.03-0.47-1.71-0.35l-6.78,1.24l-0.98-5.38L25.85,261.39z M44.77,269.76l-4.83,0.88l-1.07-5.85l4.83-0.88
			L44.77,269.76z"/>
		<path d="M4.13,248.95l-0.42-5.5l27.72-2.11l0.42,5.5L4.13,248.95z"/>
		<path d="M29.39,226.04c2.35-0.04,4.45,0.4,6.27,1.32c1.83,0.92,3.24,2.25,4.25,4c1,1.75,1.53,3.8,1.57,6.16l0.06,3.62l-5.72,0.57
			l-0.06-4.01c-0.03-1.98-0.6-3.51-1.69-4.58c-1.1-1.07-2.61-1.6-4.53-1.56l-13.27,0.22l-0.09-5.52L29.39,226.04z"/>
		<path d="M26.8,203.4c0.01-0.14,0.21-0.23,0.59-0.27c0.38-0.04,1.18,0,2.41,0.12c1.17,0.11,1.92,0.22,2.24,0.32
			c0.32,0.1,0.48,0.23,0.46,0.37l-0.15,1.54c-0.23,2.4-1.09,4.16-2.6,5.27c-1.5,1.11-3.54,1.55-6.12,1.31L4,210.21l0.52-5.49
			l19.26,1.82c0.92,0.09,1.61-0.03,2.09-0.34c0.48-0.32,0.75-0.86,0.83-1.63L26.8,203.4z"/>
		<path d="M27.14,198.99c-0.59,0.32-1.3,0.52-2.1,0.6c-0.81,0.08-1.61,0.04-2.4-0.12c-1.57-0.33-2.93-1-4.07-2.01
			c-1.14-1.01-1.94-2.24-2.41-3.67c-0.47-1.43-0.53-2.96-0.19-4.59c0.31-1.49,0.95-2.77,1.92-3.85c0.97-1.07,2.14-1.83,3.51-2.26
			c1.37-0.43,2.78-0.5,4.24-0.2c0.9,0.19,1.73,0.54,2.49,1.05c0.76,0.51,1.34,1.13,1.75,1.86l0.82-3.97
			c0.18-0.87,0.17-1.55-0.02-2.03c-0.19-0.48-0.54-0.77-1.05-0.88c-0.39-0.08-0.8-0.06-1.23,0.08c-0.42,0.13-1.03,0.45-1.81,0.97
			l-10.31,6.4l-3.14-4.61l10.87-6.55c1.31-0.81,2.53-1.35,3.65-1.6c1.12-0.25,2.26-0.26,3.41-0.02c1.35,0.28,2.48,0.85,3.39,1.69
			c0.91,0.85,1.53,1.93,1.86,3.25c0.33,1.32,0.33,2.77-0.01,4.38l-0.99,4.77c-0.37,1.77-0.69,3.03-0.96,3.78
			c-0.27,0.75-0.62,1.36-1.04,1.83c0.2,0.6,0.26,1.36,0.19,2.28c-0.07,0.92-0.28,2.19-0.61,3.79l-1.09,5.23
			c-0.06,0.28-0.99,0.23-2.79-0.14c-1.21-0.25-1.99-0.46-2.34-0.62c-0.35-0.16-0.51-0.3-0.49-0.41L27.14,198.99z M28.53,192.28
			c-0.28-1.2-0.71-2.16-1.3-2.87c-0.59-0.71-1.32-1.15-2.19-1.33c-0.93-0.19-1.75-0.07-2.45,0.37c-0.71,0.44-1.16,1.14-1.36,2.09
			c-0.2,0.99-0.07,1.82,0.4,2.5c0.47,0.69,1.17,1.12,2.1,1.32c0.9,0.19,1.75,0.11,2.54-0.24C27.07,193.77,27.82,193.16,28.53,192.28
			z"/>
		<path d="M36.97,160.81c0.23-0.65,0.28-1.23,0.14-1.76c-0.14-0.52-0.42-0.86-0.85-1.01c-0.38-0.13-1.11-0.21-2.2-0.23
			c-1.09-0.02-3.76,0.02-8,0.13c-1.54,0.03-2.64,0.05-3.31,0.06l-0.57-5.6l14.87-0.02c1.07-0.01,1.88-0.16,2.41-0.42
			c0.54-0.27,0.93-0.75,1.18-1.46l0.38-1.06c0.1-0.27,1.08-0.07,2.95,0.59c1.14,0.4,1.84,0.7,2.11,0.89
			c0.27,0.19,0.38,0.33,0.35,0.44l-0.46,1.3c-0.42,1.19-0.95,2.14-1.58,2.85c-0.63,0.71-1.41,1.17-2.34,1.38
			c0.6,0.79,0.92,1.65,0.96,2.56c0.04,0.91-0.15,1.95-0.56,3.12l-3.28,9.22l-5.56-1.47L36.97,160.81z"/>
		<path d="M43.89,143.72c0.12-0.26,1.08,0.01,2.89,0.81c1.1,0.49,1.78,0.83,2.04,1.04c0.25,0.21,0.36,0.36,0.31,0.47l-2.61,5.91
			c-0.12,0.26-1.02,0.02-2.7-0.72c-1.16-0.51-1.88-0.88-2.17-1.1c-0.29-0.22-0.42-0.39-0.37-0.49L43.89,143.72z"/>
		<path d="M46.67,137.93c0.12-0.26,1.08,0.04,2.87,0.9c1.09,0.52,1.76,0.89,2,1.11c0.25,0.21,0.35,0.37,0.3,0.48l-2.8,5.83
			c-0.12,0.26-1.02-0.01-2.67-0.81c-1.14-0.55-1.85-0.94-2.14-1.17c-0.29-0.23-0.4-0.4-0.35-0.5L46.67,137.93z"/>
		<path d="M36.76,127.44l-4.31-2.36l2.85-5.22l4.31,2.36L36.76,127.44z M50.61,126.36c2.12,1.16,3.44,2.68,3.96,4.57
			c0.52,1.89,0.2,3.91-0.97,6.05l-2.02,3.71c-0.14,0.25-1.01-0.06-2.63-0.94c-1.08-0.59-1.77-1.02-2.06-1.27
			c-0.29-0.25-0.4-0.43-0.35-0.53l2.02-3.71c0.36-0.66,0.47-1.27,0.34-1.83c-0.13-0.56-0.5-1.01-1.11-1.34l-6.05-3.31l2.62-4.8
			L50.61,126.36z"/>
		<path d="M58.21,113.01c0.77,0.5,1.45,0.68,2.03,0.55c0.58-0.14,1.14-0.61,1.67-1.43l0.42-0.65c0.16-0.24,1.07,0.18,2.73,1.25
			c1.54,1,2.24,1.62,2.08,1.86l-0.37,0.58c-0.33,0.51-0.7,0.93-1.11,1.28c-0.41,0.35-0.82,0.57-1.22,0.65l-0.04-0.02
			c1.77,1.28,3.12,2.79,4.04,4.51c0.92,1.72,1.31,3.56,1.18,5.51c-0.13,1.95-0.83,3.9-2.09,5.86l-1.97,3.04l-5.07-2.71l2.18-3.37
			c1.08-1.66,1.46-3.25,1.15-4.75c-0.31-1.5-1.28-2.78-2.89-3.82l-11.15-7.21l3-4.63L58.21,113.01z"/>
		<path d="M65.85,106.89c0.17-0.23,1.06,0.23,2.66,1.4c0.98,0.71,1.57,1.19,1.77,1.45c0.21,0.26,0.27,0.43,0.21,0.52l-3.79,5.23
			c-0.17,0.23-1-0.19-2.49-1.27c-1.02-0.74-1.66-1.25-1.9-1.53c-0.24-0.28-0.33-0.47-0.26-0.56L65.85,106.89z"/>
		<path d="M69.79,101.8c0.18-0.23,1.05,0.27,2.62,1.48c0.95,0.74,1.53,1.24,1.73,1.5c0.2,0.26,0.26,0.44,0.19,0.53l-3.96,5.11
			c-0.18,0.23-0.99-0.22-2.44-1.35c-1-0.77-1.61-1.3-1.85-1.59c-0.23-0.29-0.31-0.48-0.24-0.57L69.79,101.8z"/>
		<path d="M76.04,91.33c1.83,1.57,2.8,3.34,2.92,5.3c0.12,1.96-0.62,3.86-2.22,5.71l-2.75,3.2c-0.19,0.22-0.98-0.27-2.37-1.47
			c-0.94-0.81-1.52-1.36-1.74-1.67c-0.23-0.31-0.3-0.51-0.23-0.59l2.75-3.2c0.49-0.57,0.72-1.14,0.71-1.72s-0.28-1.09-0.8-1.54
			l-5.23-4.5l3.57-4.15L76.04,91.33z M81.42,111.31l-3.72-3.21l3.88-4.51l3.72,3.2L81.42,111.31z"/>
		<path d="M103.53,68.32c0.55-0.46,0.86-0.97,0.93-1.54c0.07-0.56-0.1-1.1-0.53-1.61l-4.45-5.33l4.23-3.54l4.31,5.16
			c0.5,0.6,1.03,0.92,1.6,0.97c0.57,0.05,1.16-0.18,1.78-0.7l1.22-1.02c0.22-0.18,0.97,0.48,2.24,2.01
			c1.18,1.41,1.66,2.21,1.44,2.39l-1.42,1.19c-0.88,0.74-1.75,1.25-2.6,1.53c-0.85,0.28-1.68,0.29-2.5,0.04
			c0.06,0.88-0.12,1.72-0.56,2.52c-0.44,0.8-1.11,1.57-2.01,2.33l-10.88,9.09c-2.01,1.68-3.97,2.43-5.89,2.25
			c-1.92-0.17-3.7-1.24-5.34-3.2l-4.42-5.29l4.23-3.54l3.95,4.73c0.65,0.77,1.28,1.2,1.92,1.29c0.63,0.09,1.34-0.19,2.11-0.84
			L103.53,68.32z M85.6,67.57l-3.15-3.77l4.83-4.03l3.15,3.77L85.6,67.57z M90.1,63.81l-3.15-3.77l4.83-4.03l3.15,3.77L90.1,63.81z"
			/>
		<path d="M118.39,57.83c0.24-0.16,0.91,0.58,2.01,2.23c0.67,1,1.06,1.66,1.16,1.97c0.1,0.31,0.11,0.5,0.01,0.56l-5.37,3.6
			c-0.24,0.16-0.87-0.52-1.89-2.05c-0.7-1.05-1.12-1.75-1.25-2.09c-0.13-0.35-0.14-0.55-0.05-0.62L118.39,57.83z"/>
		<path d="M127.66,49.87c1.24,2.07,1.6,4.06,1.09,5.95c-0.51,1.89-1.81,3.47-3.91,4.72l-3.63,2.16c-0.25,0.15-0.84-0.57-1.78-2.15
			c-0.63-1.06-1.01-1.77-1.13-2.14c-0.12-0.36-0.13-0.58-0.03-0.64l3.63-2.16c0.64-0.38,1.05-0.85,1.22-1.41
			c0.17-0.55,0.08-1.13-0.27-1.72l-3.53-5.92l4.7-2.8L127.66,49.87z M123.77,72.11l-2.52-4.22l5.4-3.22l2.52,4.22L123.77,72.11z
			 M128.8,69.11l-2.52-4.22l5.4-3.22l2.52,4.22L128.8,69.11z"/>
		<path d="M123.32,29.39l4.91-2.52l12.71,24.72l-4.91,2.52L123.32,29.39z"/>
		<path d="M160.52,41.04c0.97,2.34,1.38,4.51,1.23,6.53c-0.14,2.02-0.81,3.79-1.99,5.33c-1.19,1.53-2.84,2.74-4.96,3.62l-5.46,2.26
			l-2.59-5.13l6.17-2.55c1.54-0.64,2.6-1.52,3.17-2.64c0.58-1.12,0.6-2.34,0.06-3.64l-2.79,1.15c-2.87,1.19-5.17,1.44-6.89,0.75
			c-1.73-0.68-3.13-2.33-4.21-4.93c-0.7-1.7-1-3.35-0.88-4.95c0.11-1.6,0.62-3.02,1.52-4.27c0.9-1.24,2.15-2.19,3.74-2.85
			c2.42-1,4.66-0.99,6.72,0.02c2.07,1.01,3.68,2.92,4.85,5.74L160.52,41.04z M147.24,39.49c0.24,0.58,0.53,1.01,0.86,1.28
			c0.33,0.27,0.76,0.4,1.31,0.39c0.54-0.01,1.21-0.17,2.01-0.5l2.63-1.09l-0.87-2.11c-0.53-1.27-1.19-2.13-2-2.58
			c-0.81-0.44-1.69-0.47-2.64-0.07c-0.88,0.36-1.42,0.96-1.64,1.8C146.67,37.44,146.79,38.4,147.24,39.49z"/>
		<path d="M174.77,36.8c0.7,2.25,0.86,4.38,0.49,6.39c-0.37,2.01-1.26,3.74-2.66,5.2c-1.4,1.46-3.23,2.53-5.48,3.23l-1.36,0.42
			l-2.1-5.35l1.69-0.52c1.89-0.59,3.2-1.55,3.93-2.91c0.72-1.35,0.8-2.95,0.23-4.79l-3.92-12.68l5.27-1.63L174.77,36.8z"/>
		<path d="M195.79,27.9c0.14-0.03,0.28,0.14,0.42,0.49c0.14,0.35,0.33,1.14,0.57,2.35c0.23,1.16,0.33,1.9,0.33,2.24
			s-0.08,0.52-0.22,0.55l-1.52,0.3c-2.37,0.46-4.3,0.13-5.79-1c-1.49-1.13-2.49-2.96-2.98-5.5l-3.76-19.38l5.42-1.05l3.69,18.99
			c0.18,0.9,0.48,1.54,0.92,1.91c0.44,0.37,1.04,0.48,1.8,0.33L195.79,27.9z"/>
		<path d="M202.15,27.03c0.28-0.04,0.57,0.92,0.86,2.88c0.18,1.19,0.24,1.95,0.2,2.28c-0.04,0.33-0.12,0.5-0.23,0.51l-6.4,0.94
			c-0.28,0.04-0.56-0.85-0.83-2.67c-0.18-1.25-0.26-2.06-0.23-2.43c0.03-0.37,0.11-0.56,0.22-0.58L202.15,27.03z"/>
		<path d="M203.12,26.65c0.8-0.06,1.36-0.26,1.66-0.6c0.31-0.34,0.43-0.87,0.38-1.58l-0.09-1.2c-0.2-2.78,0.43-5.04,1.9-6.77
			c1.47-1.74,3.57-2.7,6.29-2.9s4.86,0.44,6.43,1.91c1.56,1.47,2.45,3.65,2.66,6.55c0.21,2.81-0.39,5.05-1.8,6.72
			c-1.4,1.67-3.47,2.61-6.19,2.81c-1.43,0.1-2.64,0.01-3.61-0.3c-0.97-0.3-1.73-0.75-2.26-1.35c-0.47,0.73-1.09,1.29-1.86,1.69
			c-0.78,0.4-1.81,0.65-3.1,0.75l-1.12,0.08c-0.29,0.02-0.5-0.89-0.63-2.72c-0.09-1.23-0.11-2.04-0.05-2.42
			c0.06-0.38,0.15-0.57,0.26-0.58L203.12,26.65z M216.94,22.44c-0.09-1.2-0.42-2.09-0.99-2.65c-0.57-0.56-1.39-0.81-2.45-0.73
			c-1.12,0.08-1.92,0.44-2.41,1.08c-0.49,0.64-0.69,1.56-0.6,2.77c0.08,1.03,0.41,1.81,0.99,2.33c0.58,0.52,1.42,0.74,2.51,0.66
			c1.09-0.08,1.87-0.4,2.35-0.97C216.83,24.36,217.02,23.53,216.94,22.44z"/>
	</g>
</g>
</svg>
